<?xml version="1.0" standalone="no"?><!DOCTYPE svg PUBLIC "-//W3C//DTD SVG 1.1//EN" "http://www.w3.org/Graphics/SVG/1.1/DTD/svg11.dtd"><svg t="1518839245245" class="icon" style="" viewBox="0 0 1024 1024" version="1.1" xmlns="http://www.w3.org/2000/svg" p-id="1557" xmlns:xlink="http://www.w3.org/1999/xlink" width="200" height="200"><defs><style type="text/css"></style></defs><path d="M938.666667 789.333333c8.533333-17.066667 17.066667-29.866667 25.6-46.933333 4.266667-4.266667 4.266667-8.533333 4.266666-12.8 4.266667-12.8 12.8-25.6 17.066667-38.4 4.266667-4.266667 4.266667-8.533333 4.266667-17.066667 4.266667-12.8 8.533333-25.6 12.8-34.133333 0-4.266667 4.266667-12.8 4.266666-17.066667 4.266667-12.8 4.266667-25.6 8.533334-38.4 0-4.266667 4.266667-12.8 4.266666-17.066666 4.266667-17.066667 4.266667-38.4 4.266667-55.466667 0-281.6-230.4-512-512-512s-512 230.4-512 512c0 17.066667 0 38.4 4.266667 55.466667 0 4.266667 0 12.8 4.266666 17.066666 0 12.8 4.266667 25.6 4.266667 38.4 0 4.266667 4.266667 12.8 4.266667 17.066667 4.266667 12.8 8.533333 25.6 12.8 34.133333 0 4.266667 4.266667 8.533333 4.266666 17.066667 4.266667 12.8 8.533333 25.6 17.066667 38.4 0 4.266667 4.266667 8.533333 4.266667 12.8 8.533333 17.066667 17.066667 29.866667 25.6 46.933333 89.6 140.8 247.466667 234.666667 426.666666 234.666667s337.066667-93.866667 430.933334-234.666667c-4.266667 0-4.266667 0 0 0zM507.733333 243.2c102.4 0 187.733333 85.333333 187.733334 187.733333 0 102.4-85.333333 187.733333-187.733334 187.733334s-187.733333-85.333333-187.733333-187.733334c0-102.4 85.333333-187.733333 187.733333-187.733333z m-311.466666 588.8c55.466667-123.733333 174.933333-204.8 311.466666-204.8s256 81.066667 311.466667 204.8c-81.066667 76.8-192 128-311.466667 128-119.466667-4.266667-230.4-51.2-311.466666-128z" fill="#a6a8ac" p-id="1558"></path></svg>